<?xml version="1.0" encoding="UTF-8" standalone="no"?>
<!-- Created with Inkscape (http://www.inkscape.org/) -->
<svg
   xmlns:dc="http://purl.org/dc/elements/1.1/"
   xmlns:cc="http://web.resource.org/cc/"
   xmlns:rdf="http://www.w3.org/1999/02/22-rdf-syntax-ns#"
   xmlns:svg="http://www.w3.org/2000/svg"
   xmlns="http://www.w3.org/2000/svg"
   xmlns:sodipodi="http://sodipodi.sourceforge.net/DTD/sodipodi-0.dtd"
   xmlns:inkscape="http://www.inkscape.org/namespaces/inkscape"
   id="svg2"
   sodipodi:version="0.32"
   inkscape:version="0.45.1"
   width="420"
   height="300"
   version="1.0"
   sodipodi:docbase="/home/bhagath/Desktop"
   sodipodi:docname="flair.svg"
   inkscape:output_extension="org.inkscape.output.svg.inkscape">
  <metadata
     id="metadata7">
    <rdf:RDF>
      <cc:Work
         rdf:about="">
        <dc:format>image/svg+xml</dc:format>
        <dc:type
           rdf:resource="http://purl.org/dc/dcmitype/StillImage" />
      </cc:Work>
    </rdf:RDF>
  </metadata>
  <defs
     id="defs5" />
  <sodipodi:namedview
     inkscape:window-height="974"
     inkscape:window-width="1680"
     inkscape:pageshadow="2"
     inkscape:pageopacity="0.0"
     guidetolerance="10.0"
     gridtolerance="10.0"
     objecttolerance="10.0"
     borderopacity="1.0"
     bordercolor="#666666"
     pagecolor="#ffffff"
     id="base"
     inkscape:zoom="1.3566667"
     inkscape:cx="210"
     inkscape:cy="150"
     inkscape:window-x="0"
     inkscape:window-y="24"
     inkscape:current-layer="svg2" />
  <path
     style="fill:#e60000;fill-opacity:1"
     d="M 198.39743,271.4871 C 194.35663,248.51334 187.63314,227.54418 178.23539,208.60593 C 162.94015,177.78313 141.89896,155.27883 105.72102,131.04923 C 85.906777,117.77896 78.463917,110.89509 74.678961,102.33857 C 72.173027,96.673491 72.887859,91.209523 76.85061,85.739104 C 84.729328,74.862849 98.378426,76.080182 116.73387,89.296202 C 126.0724,96.019998 145.65623,115.78137 153.83838,126.7371 C 178.6738,159.99119 193.58814,199.39788 198.68736,245.2371 C 199.84575,255.65043 201.22183,281.7371 200.61274,281.7371 C 200.38589,281.7371 199.389,277.1246 198.39743,271.4871 z M 232.83128,268.23097 C 232.77948,262.1776 233.39478,251.6026 234.19862,244.73097 C 241.09241,185.79899 263.88067,137.49567 301.84531,101.34308 C 328.81502,75.660645 349.00161,71.389919 358.12013,89.437441 C 363.80203,100.68316 354.72994,113.04334 328.2371,130.15125 C 311.62302,140.8799 292.16315,157.1229 281.25386,169.36781 C 257.57771,195.9426 242.38576,228.69882 234.70378,269.7371 L 232.92546,279.2371 L 232.83128,268.23097 z M 222.45617,269.7371 C 219.75389,247.24476 219.89653,189.60117 222.72836,159.7371 C 227.58562,108.51327 238.73937,62.605481 253.43878,33.335921 C 261.925,16.438103 272.93482,8.8965574 285.13246,11.62627 C 302.49469,15.511766 303.44714,31.670047 287.8678,58.030847 C 262.75079,100.52971 238.55552,168.83342 229.34667,223.2371 C 226.86609,237.89181 224.02117,261.24219 223.49855,271.2371 L 223.2371,276.2371 L 222.45617,269.7371 z M 209.4917,270.7371 C 209.12587,268.8121 208.55662,263.4121 208.22671,258.7371 C 205.97881,226.8834 194.62546,175.81929 181.76881,139.7371 C 171.30864,110.38062 155.20962,74.768865 143.7949,55.737101 C 138.30229,46.579268 133.72367,33.895424 133.75906,27.935479 C 133.8192,17.80816 140.9711,11.363964 152.2371,11.285902 C 163.52269,11.207705 172.49308,19.000456 180.59322,35.91942 C 196.94972,70.083617 207.99145,121.29966 211.70683,180.2371 C 212.64115,195.05829 212.0689,254.0742 210.86807,266.7371 C 210.26067,273.14226 210.05975,273.72617 209.4917,270.7371 z "
     id="path2181" />
</svg>
